<svg id="ekosyst-czech-logo" xmlns="http://www.w3.org/2000/svg" xmlns:xlink="http://www.w3.org/1999/xlink" width="176.224" height="198.307" viewBox="0 0 176.224 198.307">
  <defs>
    <clipPath id="clip-path">
      <rect id="Rectangle_1" data-name="Rectangle 1" width="149.192" height="48.672" fill="#fff"/>
    </clipPath>
  </defs>
  <path id="Path_1" data-name="Path 1" d="M114.532,99.795s-12.113-3.619-12.851-14.919c-.665-11.3,5.1-20.976,5.1-20.976S131.446,80.3,114.532,99.795Z" transform="translate(-26.568 -16.705)" fill="#fff"/>
  <path id="Path_2" data-name="Path 2" d="M91.554,115.561s-13.442-.148-17.5-11.669C69.988,92.443,73.016,80.7,73.016,80.7S102.928,90.449,91.554,115.561Z" transform="translate(-18.805 -21.097)" fill="#fff"/>
  <path id="Path_3" data-name="Path 3" d="M135.579,74.2S128.637,67.18,132.4,59.13,143.778,46.5,143.778,46.5,154.487,66.885,135.579,74.2Z" transform="translate(-34.321 -12.156)" fill="#fff"/>
  <path id="Path_4" data-name="Path 4" d="M72.609,127.492s-7.829,2.437-12.26-3.471A27.039,27.039,0,0,1,55.4,110.8S74.455,110.8,72.609,127.492Z" transform="translate(-14.483 -28.966)" fill="#fff"/>
  <path id="Path_5" data-name="Path 5" d="M71.122,154.528s-5.909,5.613-12.556,2.363a26.6,26.6,0,0,1-10.266-9.6S65.361,138.8,71.122,154.528Z" transform="translate(-12.627 -37.907)" fill="#fff"/>
  <path id="Path_6" data-name="Path 6" d="M77.327,173.986s-1.256,8.05-8.494,9.528A26.945,26.945,0,0,1,54.8,182.184S63.146,165.049,77.327,173.986Z" transform="translate(-14.326 -44.81)" fill="#fff"/>
  <path id="Path_7" data-name="Path 7" d="M50.3,165.749s-1.625,7.977-8.937,9.158A27.221,27.221,0,0,1,27.4,172.914S36.558,156.148,50.3,165.749Z" transform="translate(-7.163 -42.555)" fill="#fff"/>
  <path id="Path_8" data-name="Path 8" d="M53.017,132.19S47.33,138.025,40.535,135A26.663,26.663,0,0,1,29.9,125.764S46.666,116.68,53.017,132.19Z" transform="translate(-7.817 -32.187)" fill="#fff"/>
  <path id="Path_9" data-name="Path 9" d="M38.22,148.686s-3.028,5.982-9.084,5.318A21.667,21.667,0,0,1,18.5,149.35S29.357,138.05,38.22,148.686Z" transform="translate(-4.836 -37.678)" fill="#fff"/>
  <path id="Path_10" data-name="Path 10" d="M55.4,94.446s-6.056,2.88-10.488-1.4A22.545,22.545,0,0,1,39.3,82.85S54.958,80.561,55.4,94.446Z" transform="translate(-10.274 -21.622)" fill="#fff"/>
  <path id="Path_11" data-name="Path 11" d="M32.425,75.766s-4.875,2.363-8.42-1.108a17.737,17.737,0,0,1-4.505-8.2S32.056,64.613,32.425,75.766Z" transform="translate(-5.098 -17.344)" fill="#fff"/>
  <path id="Path_12" data-name="Path 12" d="M63.35,71.893s-6.573,1.4-9.823-3.767A22.038,22.038,0,0,1,50.5,56.9S66.083,58.3,63.35,71.893Z" transform="translate(-13.201 -14.875)" fill="#fff"/>
  <path id="Path_13" data-name="Path 13" d="M66.05,43.293s-6.573,1.4-9.823-3.767A22.038,22.038,0,0,1,53.2,28.3S68.783,29.7,66.05,43.293Z" transform="translate(-13.907 -7.398)" fill="#fff"/>
  <path id="Path_14" data-name="Path 14" d="M115.339,18.76s-4.579-4.948-1.846-10.414A22.743,22.743,0,0,1,121.543,0S128.411,14.181,115.339,18.76Z" transform="translate(-29.442)" fill="#fff"/>
  <path id="Path_15" data-name="Path 15" d="M195.528,70.117s-1.4-5.835,3.176-8.863a19.668,19.668,0,0,1,9.971-2.954S207.641,72.259,195.528,70.117Z" transform="translate(-51.063 -15.241)" fill="#fff"/>
  <path id="Path_16" data-name="Path 16" d="M216,100.944s1.108-6.056,6.426-7.016a19.473,19.473,0,0,1,10.266,1.4S226.266,108.108,216,100.944Z" transform="translate(-56.468 -24.502)" fill="#fff"/>
  <path id="Path_17" data-name="Path 17" d="M19.278,119.206s-3.324,5.022-8.641,3.693A19.473,19.473,0,0,1,1.7,117.655S12.631,108.792,19.278,119.206Z" transform="translate(-0.444 -29.839)" fill="#fff"/>
  <path id="Path_18" data-name="Path 18" d="M118.855,51.32s-6.13-2.733-5.761-8.863A22.62,22.62,0,0,1,117.23,31.6S129.121,42.014,118.855,51.32Z" transform="translate(-29.562 -8.261)" fill="#fff"/>
  <path id="Path_19" data-name="Path 19" d="M39.6,109.749s-6.056,2.88-10.488-1.4A22.545,22.545,0,0,1,23.5,98.154S39.158,95.938,39.6,109.749Z" transform="translate(-6.143 -25.626)" fill="#fff"/>
  <path id="Path_20" data-name="Path 20" d="M86.677,72.644s-9.306-2.733-9.9-11.522A32.064,32.064,0,0,1,80.547,44.8S99.455,57.356,86.677,72.644Z" transform="translate(-20.058 -11.712)" fill="#fff"/>
  <path id="Path_21" data-name="Path 21" d="M136.624,118.691s-8.346-9.528-2.88-19.5c5.465-9.9,15.51-14.993,15.51-14.993S161.366,111.158,136.624,118.691Z" transform="translate(-34.479 -22.012)" fill="#fff"/>
  <path id="Path_22" data-name="Path 22" d="M167.062,123.488s-3.1-5.392.517-9.6a19.918,19.918,0,0,1,8.863-5.687S179.544,122.233,167.062,123.488Z" transform="translate(-43.351 -28.286)" fill="#fff"/>
  <path id="Path_23" data-name="Path 23" d="M190.9,121.356s.148-8.494,7.312-11a27.219,27.219,0,0,1,14.476-.517S206.558,128.668,190.9,121.356Z" transform="translate(-49.906 -28.517)" fill="#fff"/>
  <path id="Path_24" data-name="Path 24" d="M187.3,95.134s.074-11.448,9.306-14.7c9.306-3.25,18.834-.517,18.834-.517S207.759,105.253,187.3,95.134Z" transform="translate(-48.965 -20.612)" fill="#fff"/>
  <path id="Path_25" data-name="Path 25" d="M169,87.1s-4.21-7.386.665-13.147A27.221,27.221,0,0,1,181.853,66.2S186.137,85.477,169,87.1Z" transform="translate(-43.74 -17.306)" fill="#fff"/>
  <path id="Path_26" data-name="Path 26" d="M162.8,57.9s-4.21-7.386.665-13.147A27.617,27.617,0,0,1,175.653,37S180.011,56.277,162.8,57.9Z" transform="translate(-42.119 -9.673)" fill="#fff"/>
  <path id="Path_27" data-name="Path 27" d="M135,33.7s-4.21-7.386.665-13.147A27.221,27.221,0,0,1,147.853,12.8S152.211,32,135,33.7Z" transform="translate(-34.852 -3.346)" fill="#fff"/>
  <path id="Path_28" data-name="Path 28" d="M96.172,30.434s-8.272-1.846-9.232-9.38A27.543,27.543,0,0,1,89.377,6.8S106.586,16.623,96.172,30.434Z" transform="translate(-22.684 -1.778)" fill="#fff"/>
  <path id="Path_29" data-name="Path 29" d="M167.9,165.3s2.954-7.977,10.488-7.9a26.8,26.8,0,0,1,13.811,4.358S180.16,177.489,167.9,165.3Z" transform="translate(-43.893 -41.148)" fill="#fff"/>
  <path id="Path_30" data-name="Path 30" d="M173.2,143.377s2.733-7.977,9.454-7.977a22.417,22.417,0,0,1,12.26,4.21S184.131,155.342,173.2,143.377Z" transform="translate(-45.279 -35.397)" fill="#fff"/>
  <path id="Path_31" data-name="Path 31" d="M211.3,133.266s4.062-5.909,9.528-4.358a18.771,18.771,0,0,1,9.011,6.278S217.356,145.6,211.3,133.266Z" transform="translate(-55.239 -33.632)" fill="#fff"/>
  <path id="Path_32" data-name="Path 32" d="M207.9,153.066s4.062-5.909,9.6-4.358a18.771,18.771,0,0,1,9.011,6.278S213.956,165.4,207.9,153.066Z" transform="translate(-54.35 -38.808)" fill="#fff"/>
  <path id="Path_33" data-name="Path 33" d="M17.43,92.255s-5.687,3.693-10.562,0A22.034,22.034,0,0,1,0,82.875S15.141,78.591,17.43,92.255Z" transform="translate(0 -21.499)" fill="#fff"/>
  <path id="Path_34" data-name="Path 34" d="M191.567,51.367s-3.028-5.17.443-9.38a19.41,19.41,0,0,1,8.641-5.687S203.827,49.964,191.567,51.367Z" transform="translate(-49.761 -9.49)" fill="#fff"/>
  <path id="Path_35" data-name="Path 35" d="M167.692,27.383s-4.579-3.914-2.659-9.011a20.108,20.108,0,0,1,6.352-8.272S178.845,22.065,167.692,27.383Z" transform="translate(-43.021 -2.64)" fill="#fff"/>
  <path id="Path_36" data-name="Path 36" d="M40.221,51.966s-5.909-1.108-6.795-6.5A19.856,19.856,0,0,1,34.755,35.2S47.237,41.773,40.221,51.966Z" transform="translate(-8.684 -9.202)" fill="#fff"/>
  <path id="Path_37" data-name="Path 37" d="M73.031,24.23s-5.687-1.92-5.835-7.386A19.225,19.225,0,0,1,69.929,6.8S81.3,15.072,73.031,24.23Z" transform="translate(-17.564 -1.778)" fill="#fff"/>
  <path id="Path_38" data-name="Path 38" d="M220.3,120.87s.739-4.136,4.358-4.727a12.649,12.649,0,0,1,7.016.96S227.243,125.745,220.3,120.87Z" transform="translate(-57.592 -30.321)" fill="#fff"/>
  <path id="Path_39" data-name="Path 39" d="M25.091,135.747s-2.511,3.4-6.056,2.29a12.786,12.786,0,0,1-5.835-3.988S21.029,128.288,25.091,135.747Z" transform="translate(-3.451 -34.489)" fill="#fff"/>
  <g id="Group_2" data-name="Group 2" transform="translate(14.254 93.282)">
    <g id="Group_1" data-name="Group 1" clip-path="url(#clip-path)">
      <path id="Path_40" data-name="Path 40" d="M81.823,226.85c4.358-3.914,9.084-13.664,14.181-33.384a.271.271,0,0,1,.074-.222c.222-1.551,3.914-25.924-4.358-49.041a2.331,2.331,0,0,1,3.914-2.29l2.659,7.755a2.345,2.345,0,0,0,4.062-1.551V134.011a2.28,2.28,0,0,1,2.585-2.216l13.294,1.256a2.37,2.37,0,0,1,2.142,2.216v9.9a2.361,2.361,0,0,0,4.062,1.551l8.789-9.011a2.359,2.359,0,0,1,3.988,1.034l1.182,4.875a2.146,2.146,0,0,1-.886,2.29c-5.244,3.619-22.157,19.794-14.624,57.757,0,.148.074.222.074.3.517,1.4,2.216,12.925,12.408,22.157a2.223,2.223,0,0,1-1.034,3.841c-2.585.665-5.835,1.477-8.272,2.29-7.016,2.363-16.4-3.324-19.572-5.392a2.3,2.3,0,0,0-2.29-.148c-3.619,1.625-14.033,6.13-18.1,5.022-1.4-.369-2.511-.739-3.545-1.108A2.2,2.2,0,0,1,81.823,226.85Z" transform="translate(-35.441 -127.733)" fill="#fff"/>
    </g>
  </g>
  <g id="Group_3" data-name="Group 3" transform="translate(21.714 148.232)">
    <path id="Path_41" data-name="Path 41" d="M30.065,222.766a2.708,2.708,0,0,1-.665-1.994V203.859a2.708,2.708,0,0,1,.665-1.994,2.458,2.458,0,0,1,1.846-.665H42.1a2.979,2.979,0,0,1,1.92.591,2.062,2.062,0,0,1,.665,1.625c0,1.551-.886,2.29-2.585,2.29H34.718v4.21h6.869c1.7,0,2.585.739,2.585,2.216a1.962,1.962,0,0,1-.665,1.625,2.979,2.979,0,0,1-1.92.591H34.718v4.579h7.46c1.7,0,2.585.739,2.585,2.29a1.962,1.962,0,0,1-.665,1.625,2.979,2.979,0,0,1-1.92.591H31.911A2.458,2.458,0,0,1,30.065,222.766Z" transform="translate(-29.4 -200.831)" fill="#fff"/>
    <path id="Path_42" data-name="Path 42" d="M71.69,220.841a2.564,2.564,0,0,1-.739,1.846,2.482,2.482,0,0,1-1.773.812,2.671,2.671,0,0,1-1.994-1.034l-8.42-9.232v7.46a2.736,2.736,0,0,1-.739,2.068,3.061,3.061,0,0,1-3.988,0,2.736,2.736,0,0,1-.739-2.068V203.78a2.736,2.736,0,0,1,.739-2.068,3.061,3.061,0,0,1,3.988,0,2.736,2.736,0,0,1,.739,2.068v6.943l8.272-8.937a2.309,2.309,0,0,1,1.773-.886,2.139,2.139,0,0,1,1.7.739,2.762,2.762,0,0,1,.739,1.846,2.6,2.6,0,0,1-.886,1.92L64.3,211.757l6.573,7.164A2.959,2.959,0,0,1,71.69,220.841Z" transform="translate(-35.648 -200.752)" fill="#fff"/>
    <path id="Path_43" data-name="Path 43" d="M84.475,222.193a9.462,9.462,0,0,1-3.619-3.988,15.234,15.234,0,0,1,0-12.113,9.462,9.462,0,0,1,3.619-3.988,11.635,11.635,0,0,1,11.079,0,9.5,9.5,0,0,1,3.619,3.988,15.234,15.234,0,0,1,0,12.113,9.462,9.462,0,0,1-3.619,3.988,11.634,11.634,0,0,1-11.079,0Zm9.232-4.8a8.624,8.624,0,0,0,1.329-5.17,8.473,8.473,0,0,0-1.329-5.17,4.733,4.733,0,0,0-7.386,0,8.473,8.473,0,0,0-1.329,5.17,8.719,8.719,0,0,0,1.329,5.244,4.387,4.387,0,0,0,3.693,1.773A4.449,4.449,0,0,0,93.707,217.392Z" transform="translate(-42.524 -200.7)" fill="#fff"/>
    <path id="Path_44" data-name="Path 44" d="M115.284,223.1a9.907,9.907,0,0,1-3.324-1.551,2.617,2.617,0,0,1-.739-.886A2.466,2.466,0,0,1,111,219.56a2.387,2.387,0,0,1,.517-1.625,1.544,1.544,0,0,1,1.256-.665,2.624,2.624,0,0,1,.739.148,4.856,4.856,0,0,1,.886.443,8.633,8.633,0,0,0,2.437,1.034,10.332,10.332,0,0,0,2.733.3,5.136,5.136,0,0,0,2.659-.517,1.772,1.772,0,0,0,.886-1.625,1.538,1.538,0,0,0-.812-1.256,12.044,12.044,0,0,0-3.176-1.034,19.285,19.285,0,0,1-4.579-1.551,5.4,5.4,0,0,1-2.29-2.142,6.328,6.328,0,0,1-.665-3.028,6.57,6.57,0,0,1,1.108-3.693,7.69,7.69,0,0,1,3.1-2.585,10.82,10.82,0,0,1,4.431-.96,12.4,12.4,0,0,1,3.841.517,12.2,12.2,0,0,1,3.1,1.551,2.617,2.617,0,0,1,.739.886,2.466,2.466,0,0,1,.222,1.108,2.387,2.387,0,0,1-.517,1.625,1.544,1.544,0,0,1-1.256.665,2.512,2.512,0,0,1-.739-.074,2.932,2.932,0,0,1-.886-.517c-.074-.074-.369-.222-.812-.517a8.272,8.272,0,0,0-1.625-.665,8.685,8.685,0,0,0-1.994-.222,4.566,4.566,0,0,0-2.437.591,1.943,1.943,0,0,0-.886,1.625,1.362,1.362,0,0,0,.3.96,3.252,3.252,0,0,0,1.182.739,15.7,15.7,0,0,0,2.659.739,14.362,14.362,0,0,1,4.431,1.625,6.463,6.463,0,0,1,2.29,2.142,5.927,5.927,0,0,1,.665,2.88,6.4,6.4,0,0,1-1.108,3.693,7.064,7.064,0,0,1-3.028,2.437,11.012,11.012,0,0,1-4.579.886A12.554,12.554,0,0,1,115.284,223.1Z" transform="translate(-50.732 -200.726)" fill="#fff"/>
    <path id="Path_45" data-name="Path 45" d="M151.97,200.9a2.482,2.482,0,0,1,1.773.812,2.645,2.645,0,0,1,.812,1.846,2.947,2.947,0,0,1-.665,1.773l-6.2,7.681v7.681a2.8,2.8,0,0,1-.739,2.142,2.616,2.616,0,0,1-1.92.739,2.673,2.673,0,0,1-1.994-.739,2.8,2.8,0,0,1-.739-2.142v-7.681l-6.13-7.681a2.647,2.647,0,0,1-.665-1.773,2.564,2.564,0,0,1,.739-1.846,2.482,2.482,0,0,1,1.773-.812,2.183,2.183,0,0,1,1.773.96l5.244,6.647,5.244-6.647A2.15,2.15,0,0,1,151.97,200.9Z" transform="translate(-57.137 -200.752)" fill="#fff"/>
    <path id="Path_46" data-name="Path 46" d="M166.284,223.1a9.907,9.907,0,0,1-3.324-1.551,2.617,2.617,0,0,1-.739-.886A2.466,2.466,0,0,1,162,219.56a2.387,2.387,0,0,1,.517-1.625,1.544,1.544,0,0,1,1.256-.665,2.624,2.624,0,0,1,.739.148,4.855,4.855,0,0,1,.886.443,8.633,8.633,0,0,0,2.437,1.034,10.332,10.332,0,0,0,2.733.3,5.136,5.136,0,0,0,2.659-.517,1.772,1.772,0,0,0,.886-1.625,1.538,1.538,0,0,0-.812-1.256,12.044,12.044,0,0,0-3.176-1.034,19.285,19.285,0,0,1-4.579-1.551,5.4,5.4,0,0,1-2.29-2.142,6.328,6.328,0,0,1-.665-3.028,6.57,6.57,0,0,1,1.108-3.693,7.69,7.69,0,0,1,3.1-2.585,10.82,10.82,0,0,1,4.431-.96,12.4,12.4,0,0,1,3.841.517,12.2,12.2,0,0,1,3.1,1.551,2.617,2.617,0,0,1,.739.886,2.466,2.466,0,0,1,.222,1.108,2.387,2.387,0,0,1-.517,1.625,1.544,1.544,0,0,1-1.256.665,2.512,2.512,0,0,1-.739-.074,2.932,2.932,0,0,1-.886-.517c-.074-.074-.369-.222-.812-.517a8.272,8.272,0,0,0-1.625-.665,5.917,5.917,0,0,0-1.994-.222,4.566,4.566,0,0,0-2.437.591,1.853,1.853,0,0,0-.886,1.625,1.362,1.362,0,0,0,.3.96,3.253,3.253,0,0,0,1.182.739,15.7,15.7,0,0,0,2.659.739,14.362,14.362,0,0,1,4.431,1.625,5.4,5.4,0,0,1,2.29,2.142,5.927,5.927,0,0,1,.665,2.88,6.4,6.4,0,0,1-1.108,3.693,7.064,7.064,0,0,1-3.028,2.437,11.012,11.012,0,0,1-4.579.886A12.554,12.554,0,0,1,166.284,223.1Z" transform="translate(-64.065 -200.726)" fill="#fff"/>
    <path id="Path_47" data-name="Path 47" d="M193.86,222.84a2.736,2.736,0,0,1-.739-2.068V205.927h-4.136a2.839,2.839,0,0,1-1.92-.591,2.7,2.7,0,0,1,0-3.545,2.839,2.839,0,0,1,1.92-.591H202.8a2.839,2.839,0,0,1,1.92.591,2.7,2.7,0,0,1,0,3.545,2.839,2.839,0,0,1-1.92.591H198.66v14.845a2.736,2.736,0,0,1-.739,2.068,2.673,2.673,0,0,1-1.994.739A2.736,2.736,0,0,1,193.86,222.84Z" transform="translate(-70.444 -200.831)" fill="#fff"/>
    <path id="Path_48" data-name="Path 48" d="M70.075,259.093a9.049,9.049,0,0,1-3.619-3.988,13.065,13.065,0,0,1-1.256-6.056,14.306,14.306,0,0,1,1.256-6.056A9.963,9.963,0,0,1,70.075,239a10.213,10.213,0,0,1,5.465-1.4,10.629,10.629,0,0,1,6.573,2.142,1.914,1.914,0,0,1,.739.812,2.466,2.466,0,0,1,.222,1.108,2.387,2.387,0,0,1-.517,1.625,1.544,1.544,0,0,1-1.256.665,2.655,2.655,0,0,1-.812-.148,3.008,3.008,0,0,1-.812-.443,9.3,9.3,0,0,0-1.92-.96,5.507,5.507,0,0,0-1.92-.3,4.673,4.673,0,0,0-3.914,1.7c-.886,1.108-1.256,2.807-1.256,5.1a8.878,8.878,0,0,0,1.256,5.17,4.673,4.673,0,0,0,3.914,1.7,4.333,4.333,0,0,0,1.7-.3c.517-.222,1.256-.517,2.142-.96l.886-.443a1.853,1.853,0,0,1,.739-.148,1.544,1.544,0,0,1,1.256.665,2.517,2.517,0,0,1,.517,1.625,2.466,2.466,0,0,1-.222,1.108,1.913,1.913,0,0,1-.739.812,10.783,10.783,0,0,1-6.573,2.142A8.472,8.472,0,0,1,70.075,259.093Z" transform="translate(-38.759 -210.347)" fill="#fff"/>
    <path id="Path_49" data-name="Path 49" d="M104.781,260.642c0,1.4-.812,2.068-2.363,2.068H93.111a2.275,2.275,0,0,1-2.363-2.363,2.863,2.863,0,0,1,.739-1.92l6.2-7.09H92.963c-1.551,0-2.363-.665-2.363-2.068s.812-2.068,2.363-2.068H101.9a2.276,2.276,0,0,1,2.363,2.363,2.863,2.863,0,0,1-.739,1.92l-6.2,7.164h5.17C103.968,258.574,104.781,259.239,104.781,260.642Z" transform="translate(-45.399 -212.856)" fill="#fff"/>
    <path id="Path_50" data-name="Path 50" d="M124.49,258.122a2.344,2.344,0,0,1,.443,1.477,2.078,2.078,0,0,1-1.182,1.92,9.846,9.846,0,0,1-2.363.886,10.869,10.869,0,0,1-2.511.369,8.445,8.445,0,0,1-4.21-.96,7.32,7.32,0,0,1-2.807-2.807,8.933,8.933,0,0,1-.96-4.284,8.836,8.836,0,0,1,.96-4.21,6.55,6.55,0,0,1,2.585-2.88,7.2,7.2,0,0,1,3.767-1.034,6.222,6.222,0,0,1,3.545.96,6.324,6.324,0,0,1,2.363,2.659,8.881,8.881,0,0,1,.812,4.062,1.533,1.533,0,0,1-.3,1.108.994.994,0,0,1-.886.369h-7.829a3.412,3.412,0,0,0,.886,2.142,3.285,3.285,0,0,0,2.068.665,6.622,6.622,0,0,0,1.329-.148c.443-.148.886-.3,1.4-.517a4.161,4.161,0,0,1,.886-.3,3.14,3.14,0,0,1,.812-.148A2.083,2.083,0,0,1,124.49,258.122Zm-7.829-6.943a3.3,3.3,0,0,0-.739,2.068h4.653c-.148-1.846-.886-2.807-2.216-2.807A2.042,2.042,0,0,0,116.661,251.179Z" transform="translate(-50.706 -212.699)" fill="#fff"/>
    <path id="Path_51" data-name="Path 51" d="M134.368,260.633A7.944,7.944,0,0,1,132.3,254.8a8.961,8.961,0,0,1,1.034-4.284,7.035,7.035,0,0,1,2.807-2.88,8.378,8.378,0,0,1,4.136-1.034,10.33,10.33,0,0,1,2.511.369,10.037,10.037,0,0,1,2.216.96,2.061,2.061,0,0,1,.886,1.846,2.809,2.809,0,0,1-.443,1.625,1.225,1.225,0,0,1-1.108.591,3.707,3.707,0,0,1-.886-.148,2.5,2.5,0,0,1-.886-.443,10.842,10.842,0,0,0-1.034-.443,3.707,3.707,0,0,0-.886-.148c-1.92,0-2.954,1.256-2.954,3.841a4.619,4.619,0,0,0,.739,2.88,2.565,2.565,0,0,0,2.142.96,3.741,3.741,0,0,0,.96-.148,3.6,3.6,0,0,0,.96-.443c.369-.222.739-.3.96-.443a2.655,2.655,0,0,1,.812-.148,1.4,1.4,0,0,1,1.108.591,2.654,2.654,0,0,1,.443,1.625,2.964,2.964,0,0,1-.222,1.108,1.616,1.616,0,0,1-.665.739,8.84,8.84,0,0,1-4.948,1.329A7,7,0,0,1,134.368,260.633Z" transform="translate(-56.301 -212.699)" fill="#fff"/>
    <path id="Path_52" data-name="Path 52" d="M166.937,245.972a8.52,8.52,0,0,1,1.256,5.022v6.795a2.505,2.505,0,0,1-.739,1.92,3.106,3.106,0,0,1-3.841,0,2.675,2.675,0,0,1-.739-1.92v-6.943c0-1.551-.591-2.29-1.846-2.29a2.293,2.293,0,0,0-1.846.812,3.231,3.231,0,0,0-.665,2.142v6.278a2.505,2.505,0,0,1-.739,1.92,3.106,3.106,0,0,1-3.841,0,2.675,2.675,0,0,1-.739-1.92v-17.5a2.45,2.45,0,0,1,.739-1.846,2.808,2.808,0,0,1,1.92-.739,2.574,2.574,0,0,1,1.846.665,2.446,2.446,0,0,1,.739,1.773v6.278a4.928,4.928,0,0,1,1.994-1.7,6.371,6.371,0,0,1,2.659-.591A5.458,5.458,0,0,1,166.937,245.972Z" transform="translate(-61.764 -210.373)" fill="#fff"/>
  </g>
</svg>
