<?xml version="1.0" encoding="utf-8"?>
<!-- Generator: Adobe Illustrator 24.3.0, SVG Export Plug-In . SVG Version: 6.00 Build 0)  -->
<svg version="1.1" id="Vrstva_1" xmlns="http://www.w3.org/2000/svg" xmlns:xlink="http://www.w3.org/1999/xlink" x="0px" y="0px"
	 width="238.7px" height="277.7px" viewBox="0 0 238.7 277.7" enable-background="new 0 0 238.7 277.7" xml:space="preserve">
<path fill="#8DC153" d="M119.1,112.5c0,0-16.4-4.9-17.4-20.2c-0.9-15.3,6.9-28.4,6.9-28.4S142,86.1,119.1,112.5z"/>
<path fill="#8DC153" d="M98.5,127.9c0,0-18.2-0.2-23.7-15.8c-5.5-15.5-1.4-31.4-1.4-31.4S113.9,93.9,98.5,127.9z"/>
<path fill="#8DC153" d="M137.1,84c0,0-9.4-9.5-4.3-20.4c5.1-10.9,15.4-17.1,15.4-17.1S162.7,74.1,137.1,84z"/>
<path fill="#8DC153" d="M78.7,133.4c0,0-10.6,3.3-16.6-4.7c-6.1-8-6.7-17.9-6.7-17.9S81.2,110.8,78.7,133.4z"/>
<path fill="#8DC153" d="M79.2,157.9c0,0-8,7.6-17,3.2c-9-4.4-13.9-13-13.9-13S71.4,136.6,79.2,157.9z"/>
<path fill="#8DC153" d="M85.3,174.9c0,0-1.7,10.9-11.5,12.9c-9.8,2-19-1.8-19-1.8S66.1,162.8,85.3,174.9z"/>
<path fill="#8DC153" d="M58.4,166.8c0,0-2.2,10.8-12.1,12.4c-9.9,1.5-18.9-2.7-18.9-2.7S39.8,153.8,58.4,166.8z"/>
<path fill="#8DC153" d="M61.2,135.4c0,0-7.7,7.9-16.9,3.8c-9.2-4.1-14.4-12.5-14.4-12.5S52.6,114.4,61.2,135.4z"/>
<path fill="#8DC153" d="M45.2,150.3c0,0-4.1,8.1-12.3,7.2c-8.2-0.9-14.4-6.3-14.4-6.3S33.2,135.9,45.2,150.3z"/>
<path fill="#8DC153" d="M61.1,98.6c0,0-8.2,3.9-14.2-1.9c-5.9-5.8-7.6-13.8-7.6-13.8S60.5,79.8,61.1,98.6z"/>
<path fill="#8DC153" d="M37,79.1c0,0-6.6,3.2-11.4-1.5c-4.8-4.7-6.1-11.1-6.1-11.1S36.5,64,37,79.1z"/>
<path fill="#8DC153" d="M67.9,77.2c0,0-8.9,1.9-13.3-5.1c-4.4-7-4.1-15.2-4.1-15.2S71.6,58.8,67.9,77.2z"/>
<path fill="#8DC153" d="M70.6,48.6c0,0-8.9,1.9-13.3-5.1c-4.4-7-4.1-15.2-4.1-15.2S74.3,30.2,70.6,48.6z"/>
<path fill="#8DC153" d="M116.3,25.4c0,0-6.2-6.7-2.5-14.1C117.6,4,124.7,0,124.7,0S134,19.2,116.3,25.4z"/>
<path fill="#8DC153" d="M195.6,74.3c0,0-1.9-7.9,4.3-12c6.2-4.1,13.5-4,13.5-4S212,77.2,195.6,74.3z"/>
<path fill="#8DC153" d="M216,103.5c0,0,1.5-8.2,8.7-9.5c7.3-1.2,13.9,1.9,13.9,1.9S229.9,113.2,216,103.5z"/>
<path fill="#8DC153" d="M25.5,121c0,0-4.5,6.8-11.7,5c-7.2-1.7-12.1-7.1-12.1-7.1S16.5,106.9,25.5,121z"/>
<path fill="#8DC153" d="M120.9,58.3c0,0-8.3-3.7-7.8-12c0.6-8.2,5.6-14.7,5.6-14.7S134.8,45.7,120.9,58.3z"/>
<path fill="#8DC153" d="M45.3,113.9c0,0-8.2,3.9-14.2-1.9c-5.9-5.8-7.6-13.8-7.6-13.8S44.7,95.2,45.3,113.9z"/>
<path fill="#8DC153" d="M90.2,82.5c0,0-12.6-3.7-13.4-15.6c-0.8-11.9,5.1-22.1,5.1-22.1S107.5,61.8,90.2,82.5z"/>
<path fill="#8DC153" d="M138.3,130.9c0,0-11.3-12.9-3.9-26.4c7.4-13.4,21-20.3,21-20.3S171.8,120.7,138.3,130.9z"/>
<path fill="#8DC153" d="M167.5,128.9c0,0-4.2-7.3,0.7-13c4.8-5.7,12-7.7,12-7.7S184.4,127.2,167.5,128.9z"/>
<path fill="#8DC153" d="M190.9,125.7c0,0,0.2-11.5,9.9-14.9c9.7-3.4,19.6-0.7,19.6-0.7S212.1,135.6,190.9,125.7z"/>
<path fill="#8DC153" d="M187.3,100.9c0,0,0.1-15.5,12.6-19.9c12.6-4.4,25.5-0.7,25.5-0.7S215,114.6,187.3,100.9z"/>
<path fill="#8DC153" d="M169.6,94.5c0,0-5.7-10,0.9-17.8c6.6-7.8,16.5-10.5,16.5-10.5S192.8,92.3,169.6,94.5z"/>
<path fill="#8DC153" d="M163.4,65.3c0,0-5.7-10,0.9-17.8C171,39.7,180.8,37,180.8,37S186.7,63.1,163.4,65.3z"/>
<path fill="#8DC153" d="M135.6,41.1c0,0-5.7-10,0.9-17.8c6.6-7.8,16.5-10.5,16.5-10.5S158.9,38.8,135.6,41.1z"/>
<path fill="#8DC153" d="M99.5,38.8c0,0-11.2-2.5-12.5-12.7c-1.3-10.2,3.3-19.3,3.3-19.3S113.6,20.1,99.5,38.8z"/>
<path fill="#8DC153" d="M167.9,168.1c0,0,4-10.8,14.2-10.7c10.3,0,18.7,5.9,18.7,5.9S184.5,184.6,167.9,168.1z"/>
<path fill="#8DC153" d="M173.2,146.2c0,0,3.7-10.8,12.8-10.8c9.2,0,16.6,5.7,16.6,5.7S188,162.4,173.2,146.2z"/>
<path fill="#8DC153" d="M211.3,134.9c0,0,5.5-8,12.9-5.9c7.5,2.1,12.2,8.5,12.2,8.5S219.5,151.6,211.3,134.9z"/>
<path fill="#8DC153" d="M207.9,154.7c0,0,5.5-8,13-5.9c7.5,2.1,12.2,8.5,12.2,8.5S216.1,171.4,207.9,154.7z"/>
<path fill="#8DC153" d="M23.6,95.8c0,0-7.7,5-14.3,0C2.7,90.9,0,83.1,0,83.1S20.5,77.3,23.6,95.8z"/>
<path fill="#8DC153" d="M192,56.7c0,0-4.1-7,0.6-12.7c4.7-5.7,11.7-7.7,11.7-7.7S208.6,54.8,192,56.7z"/>
<path fill="#8DC153" d="M168.8,33.5c0,0-6.2-5.3-3.6-12.2c2.6-6.9,8.6-11.2,8.6-11.2S183.9,26.3,168.8,33.5z"/>
<path fill="#8DC153" d="M42.7,57.9c0,0-8-1.5-9.2-8.8c-1.2-7.3,1.8-13.9,1.8-13.9S52.2,44.1,42.7,57.9z"/>
<path fill="#8DC153" d="M75.1,30.4c0,0-7.7-2.6-7.9-10C66.9,13,70.9,6.8,70.9,6.8S86.3,18,75.1,30.4z"/>
<path fill="#8DC153" d="M220.3,122.6c0,0,1-5.6,5.9-6.4c5-0.9,9.5,1.3,9.5,1.3S229.7,129.2,220.3,122.6z"/>
<path fill="#8DC153" d="M29.3,137.1c0,0-3.4,4.6-8.2,3.1c-4.8-1.4-7.9-5.4-7.9-5.4S23.8,127,29.3,137.1z"/>
<g>
	<defs>
		<rect id="SVGID_1_" x="19.3" y="126.3" width="202" height="65.9"/>
	</defs>
	<clipPath id="SVGID_2_">
		<use xlink:href="#SVGID_1_"  overflow="visible"/>
	</clipPath>
	<path clip-path="url(#SVGID_2_)" fill="#937466" d="M82.1,260.5c5.9-5.3,12.3-18.5,19.2-45.2c0-0.1,0-0.2,0.1-0.3
		c0.3-2.1,5.3-35.1-5.9-66.4c-1.1-3.1,3-5.5,5.3-3.1l3.6,10.5c2,2.1,5.5,0.7,5.5-2.1v-19.1c0-1.8,1.6-3.2,3.5-3l18,1.7
		c1.6,0.2,2.9,1.5,2.9,3v13.4c0,2.8,3.5,4.1,5.5,2.1l11.9-12.2c1.7-1.8,4.9-1,5.4,1.4l1.6,6.6c0.3,1.2-0.2,2.4-1.2,3.1
		c-7.1,4.9-30,26.8-19.8,78.2c0,0.2,0.1,0.3,0.1,0.4c0.7,1.9,3,17.5,16.8,30c1.8,1.7,1.1,4.6-1.4,5.2c-3.5,0.9-7.9,2-11.2,3.1
		c-9.5,3.2-22.2-4.5-26.5-7.3c-0.9-0.6-2.1-0.7-3.1-0.2c-4.9,2.2-19,8.3-24.5,6.8c-1.9-0.5-3.4-1-4.8-1.5
		C80.9,264.8,80.3,262.1,82.1,260.5z"/>
</g>
<g>
	<path fill="#8DC153" d="M30.3,230.4c-0.6-0.6-0.9-1.5-0.9-2.7v-22.9c0-1.2,0.3-2.1,0.9-2.7c0.6-0.6,1.4-0.9,2.5-0.9h13.8
		c1.1,0,2,0.3,2.6,0.8s0.9,1.3,0.9,2.2c0,2.1-1.2,3.1-3.5,3.1H36.6v5.7h9.3c2.3,0,3.5,1,3.5,3c0,1-0.3,1.7-0.9,2.2
		c-0.6,0.5-1.5,0.8-2.6,0.8h-9.3v6.2h10.1c2.3,0,3.5,1,3.5,3.1c0,1-0.3,1.7-0.9,2.2s-1.5,0.8-2.6,0.8H32.8
		C31.7,231.3,30.9,231,30.3,230.4z"/>
	<path fill="#8DC153" d="M78.2,227.9c0,0.9-0.3,1.8-1,2.5c-0.7,0.7-1.5,1.1-2.4,1.1c-1,0-1.9-0.5-2.7-1.4l-11.4-12.5v10.1
		c0,1.2-0.3,2.1-1,2.8c-0.7,0.7-1.6,1-2.7,1c-1.1,0-2-0.3-2.7-1c-0.7-0.7-1-1.6-1-2.8v-22.9c0-1.2,0.3-2.1,1-2.8
		c0.7-0.7,1.5-1,2.7-1c1.1,0,2.1,0.3,2.7,1c0.7,0.7,1,1.6,1,2.8v9.4l11.2-12.1c0.7-0.8,1.5-1.2,2.4-1.2c0.9,0,1.7,0.3,2.3,1
		s1,1.5,1,2.5s-0.4,1.8-1.2,2.6l-8.2,8.6l8.9,9.7C77.8,226.1,78.2,227,78.2,227.9z"/>
	<path fill="#8DC153" d="M86.2,229.8c-2.1-1.3-3.8-3.1-4.9-5.4c-1.1-2.3-1.7-5.1-1.7-8.2c0-3.1,0.6-5.9,1.7-8.2
		c1.1-2.3,2.8-4.1,4.9-5.4s4.6-1.9,7.5-1.9s5.4,0.6,7.5,1.9s3.7,3,4.9,5.4c1.1,2.3,1.7,5.1,1.7,8.2c0,3.1-0.6,5.9-1.7,8.2
		c-1.1,2.3-2.8,4.1-4.9,5.4c-2.1,1.3-4.6,1.9-7.5,1.9C90.8,231.7,88.3,231.1,86.2,229.8z M98.7,223.3c1.2-1.6,1.8-4,1.8-7
		c0-3.1-0.6-5.4-1.8-7s-2.9-2.4-5-2.4c-2.1,0-3.8,0.8-5,2.4c-1.2,1.6-1.8,3.9-1.8,7c0,3.1,0.6,5.5,1.8,7.1c1.2,1.6,2.9,2.4,5,2.4
		S97.5,224.9,98.7,223.3z"/>
	<path fill="#8DC153" d="M116.8,231c-1.8-0.5-3.3-1.2-4.5-2.1c-0.5-0.4-0.8-0.8-1-1.2c-0.2-0.4-0.3-0.9-0.3-1.5
		c0-0.9,0.2-1.6,0.7-2.2s1-0.9,1.7-0.9c0.3,0,0.7,0.1,1,0.2s0.7,0.3,1.2,0.6c1.1,0.7,2.2,1.1,3.3,1.4c1.1,0.3,2.3,0.4,3.7,0.4
		c1.6,0,2.8-0.2,3.6-0.7c0.8-0.5,1.2-1.2,1.2-2.2c0-0.7-0.4-1.2-1.1-1.7c-0.8-0.5-2.2-0.9-4.3-1.4c-2.6-0.6-4.7-1.3-6.2-2.1
		c-1.5-0.8-2.5-1.8-3.1-2.9c-0.6-1.1-0.9-2.5-0.9-4.1c0-1.8,0.5-3.5,1.5-5c1-1.5,2.4-2.6,4.2-3.5c1.8-0.8,3.8-1.3,6-1.3
		c1.9,0,3.7,0.2,5.2,0.7c1.5,0.5,2.9,1.2,4.2,2.1c0.5,0.4,0.8,0.8,1,1.2c0.2,0.4,0.3,0.9,0.3,1.5c0,0.9-0.2,1.6-0.7,2.2
		s-1,0.9-1.7,0.9c-0.3,0-0.7,0-1-0.1c-0.3-0.1-0.7-0.3-1.2-0.7c-0.1-0.1-0.5-0.3-1.1-0.7c-0.6-0.4-1.4-0.6-2.2-0.9
		c-0.8-0.2-1.8-0.3-2.7-0.3c-1.4,0-2.5,0.3-3.3,0.8c-0.8,0.6-1.2,1.3-1.2,2.2c0,0.5,0.1,1,0.4,1.3s0.8,0.7,1.6,1
		c0.8,0.3,2,0.7,3.6,1c2.6,0.6,4.6,1.3,6,2.2s2.5,1.8,3.1,2.9s0.9,2.4,0.9,3.9c0,1.9-0.5,3.5-1.5,5c-1,1.4-2.4,2.6-4.1,3.3
		c-1.8,0.8-3.8,1.2-6.2,1.2C120.6,231.7,118.6,231.5,116.8,231z"/>
	<path fill="#8DC153" d="M157.8,200.9c0.9,0,1.7,0.4,2.4,1.1c0.7,0.7,1.1,1.6,1.1,2.5c0,0.8-0.3,1.6-0.9,2.4l-8.4,10.4v10.4
		c0,1.3-0.3,2.2-1,2.9c-0.7,0.7-1.6,1-2.6,1c-1.1,0-2-0.3-2.7-1c-0.7-0.7-1-1.6-1-2.9v-10.4l-8.3-10.4c-0.6-0.7-0.9-1.5-0.9-2.4
		c0-0.9,0.3-1.8,1-2.5c0.7-0.7,1.5-1.1,2.4-1.1c0.9,0,1.7,0.4,2.4,1.3l7.1,9l7.1-9C156.1,201.4,156.9,200.9,157.8,200.9z"/>
	<path fill="#8DC153" d="M167.8,231c-1.8-0.5-3.3-1.2-4.5-2.1c-0.5-0.4-0.8-0.8-1-1.2c-0.2-0.4-0.3-0.9-0.3-1.5
		c0-0.9,0.2-1.6,0.7-2.2s1-0.9,1.7-0.9c0.3,0,0.7,0.1,1,0.2s0.7,0.3,1.2,0.6c1.1,0.7,2.2,1.1,3.3,1.4c1.1,0.3,2.3,0.4,3.7,0.4
		c1.6,0,2.8-0.2,3.6-0.7c0.8-0.5,1.2-1.2,1.2-2.2c0-0.7-0.4-1.2-1.1-1.7c-0.8-0.5-2.2-0.9-4.3-1.4c-2.6-0.6-4.7-1.3-6.2-2.1
		c-1.5-0.8-2.5-1.8-3.1-2.9c-0.6-1.1-0.9-2.5-0.9-4.1c0-1.8,0.5-3.5,1.5-5s2.4-2.6,4.2-3.5c1.8-0.8,3.8-1.3,6-1.3
		c1.9,0,3.7,0.2,5.2,0.7c1.5,0.5,2.9,1.2,4.2,2.1c0.5,0.4,0.8,0.8,1,1.2s0.3,0.9,0.3,1.5c0,0.9-0.2,1.6-0.7,2.2
		c-0.5,0.6-1,0.9-1.7,0.9c-0.3,0-0.7,0-1-0.1c-0.3-0.1-0.7-0.3-1.2-0.7c-0.1-0.1-0.5-0.3-1.1-0.7c-0.6-0.4-1.4-0.6-2.2-0.9
		s-1.8-0.3-2.7-0.3c-1.4,0-2.5,0.3-3.3,0.8s-1.2,1.3-1.2,2.2c0,0.5,0.1,1,0.4,1.3c0.3,0.3,0.8,0.7,1.6,1c0.8,0.3,2,0.7,3.6,1
		c2.6,0.6,4.6,1.3,6,2.2c1.5,0.8,2.5,1.8,3.1,2.9c0.6,1.1,0.9,2.4,0.9,3.9c0,1.9-0.5,3.5-1.5,5c-1,1.4-2.4,2.6-4.1,3.3
		c-1.8,0.8-3.8,1.2-6.2,1.2C171.6,231.7,169.6,231.5,167.8,231z"/>
	<path fill="#8DC153" d="M196.5,230.5c-0.7-0.7-1-1.6-1-2.8v-20.1h-5.6c-1.2,0-2-0.3-2.6-0.8c-0.6-0.5-0.9-1.3-0.9-2.4
		s0.3-1.9,0.9-2.4c0.6-0.5,1.4-0.8,2.6-0.8h18.7c1.2,0,2,0.3,2.6,0.8c0.6,0.5,0.9,1.3,0.9,2.4s-0.3,1.9-0.9,2.4
		c-0.6,0.5-1.4,0.8-2.6,0.8h-5.6v20.1c0,1.2-0.3,2.1-1,2.8c-0.7,0.7-1.6,1-2.7,1C198.1,231.5,197.2,231.2,196.5,230.5z"/>
	<path fill="#8DC153" d="M71.8,266.7c-2.1-1.3-3.8-3-4.9-5.4c-1.2-2.3-1.7-5.1-1.7-8.2c0-3.1,0.6-5.8,1.7-8.2
		c1.2-2.3,2.8-4.1,4.9-5.4s4.6-1.9,7.4-1.9c3.4,0,6.4,1,8.9,2.9c0.5,0.3,0.8,0.7,1,1.1s0.3,0.9,0.3,1.5c0,0.9-0.2,1.6-0.7,2.2
		c-0.5,0.6-1,0.9-1.7,0.9c-0.4,0-0.8-0.1-1.1-0.2c-0.3-0.1-0.7-0.3-1.1-0.6c-0.9-0.6-1.8-1-2.6-1.3c-0.8-0.3-1.7-0.4-2.6-0.4
		c-2.4,0-4.1,0.8-5.3,2.3c-1.2,1.5-1.7,3.8-1.7,6.9c0,3.1,0.6,5.5,1.7,7c1.2,1.5,2.9,2.3,5.3,2.3c0.8,0,1.6-0.1,2.3-0.4
		c0.7-0.3,1.7-0.7,2.9-1.3c0.6-0.3,1-0.5,1.2-0.6s0.6-0.2,1-0.2c0.7,0,1.2,0.3,1.7,0.9s0.7,1.4,0.7,2.2c0,0.6-0.1,1.1-0.3,1.5
		c-0.2,0.4-0.5,0.8-1,1.1c-2.6,1.9-5.5,2.9-8.9,2.9C76.4,268.6,73.9,268,71.8,266.7z"/>
	<path fill="#8DC153" d="M109.8,265.4c0,1.9-1.1,2.8-3.2,2.8H94c-0.9,0-1.7-0.3-2.3-0.9c-0.6-0.6-0.9-1.4-0.9-2.3
		c0-0.9,0.3-1.8,1-2.6l8.4-9.6h-6.4c-2.1,0-3.2-0.9-3.2-2.8c0-1.9,1.1-2.8,3.2-2.8h12.1c0.9,0,1.7,0.3,2.3,0.9
		c0.6,0.6,0.9,1.4,0.9,2.3c0,0.9-0.3,1.8-1,2.6l-8.4,9.7h7C108.7,262.6,109.8,263.5,109.8,265.4z"/>
	<path fill="#8DC153" d="M129.3,262.2c0.4,0.5,0.6,1.2,0.6,2c0,1.1-0.5,2-1.6,2.6c-0.9,0.5-2,0.9-3.2,1.2c-1.2,0.3-2.4,0.5-3.4,0.5
		c-2.2,0-4.1-0.4-5.7-1.3c-1.6-0.9-2.9-2.2-3.8-3.8c-0.9-1.7-1.3-3.6-1.3-5.8c0-2.1,0.4-4,1.3-5.7c0.8-1.7,2-3,3.5-3.9
		c1.5-0.9,3.2-1.4,5.1-1.4c1.8,0,3.5,0.4,4.8,1.3c1.4,0.9,2.5,2.1,3.2,3.6c0.8,1.6,1.1,3.4,1.1,5.5c0,0.7-0.1,1.2-0.4,1.5
		c-0.3,0.4-0.7,0.5-1.2,0.5h-10.6c0.2,1.4,0.6,2.4,1.2,2.9s1.6,0.9,2.8,0.9c0.7,0,1.3-0.1,1.8-0.2c0.6-0.2,1.2-0.4,1.9-0.7
		c0.4-0.2,0.8-0.3,1.2-0.4c0.4-0.1,0.7-0.2,1.1-0.2C128.4,261.5,128.9,261.7,129.3,262.2z M118.7,252.8c-0.6,0.6-0.9,1.6-1,2.8h6.3
		c-0.2-2.5-1.2-3.8-3-3.8C120,251.8,119.3,252.1,118.7,252.8z"/>
	<path fill="#8DC153" d="M135.1,265.6c-1.9-1.9-2.8-4.6-2.8-7.9c0-2.2,0.5-4.1,1.4-5.8c0.9-1.7,2.2-3,3.8-3.9
		c1.6-0.9,3.5-1.4,5.6-1.4c1.1,0,2.2,0.2,3.4,0.5c1.1,0.3,2.1,0.8,3,1.3c0.8,0.5,1.2,1.4,1.2,2.5c0,0.9-0.2,1.6-0.6,2.2
		s-0.9,0.8-1.5,0.8c-0.4,0-0.8-0.1-1.2-0.2c-0.4-0.1-0.8-0.3-1.2-0.6c-0.5-0.3-1-0.4-1.4-0.6c-0.4-0.1-0.8-0.2-1.2-0.2
		c-2.6,0-4,1.7-4,5.2c0,1.7,0.3,3,1,3.9c0.7,0.9,1.7,1.3,2.9,1.3c0.5,0,0.9-0.1,1.3-0.2s0.8-0.3,1.3-0.6c0.5-0.3,1-0.4,1.3-0.6
		c0.3-0.1,0.7-0.2,1.1-0.2c0.6,0,1.1,0.3,1.5,0.8s0.6,1.3,0.6,2.2c0,0.5-0.1,1-0.3,1.5c-0.2,0.4-0.5,0.8-0.9,1
		c-1.8,1.2-4.1,1.8-6.7,1.8C139.5,268.5,137,267.6,135.1,265.6z"/>
	<path fill="#8DC153" d="M171.8,248.9c1.1,1.5,1.7,3.8,1.7,6.8v9.2c0,1.1-0.3,1.9-1,2.6c-0.6,0.6-1.5,0.9-2.6,0.9
		c-1.1,0-2-0.3-2.6-0.9c-0.6-0.6-1-1.5-1-2.6v-9.4c0-2.1-0.8-3.1-2.5-3.1c-1.1,0-1.9,0.4-2.5,1.1s-0.9,1.7-0.9,2.9v8.5
		c0,1.1-0.3,1.9-1,2.6c-0.6,0.6-1.5,0.9-2.6,0.9s-2-0.3-2.6-0.9c-0.6-0.6-1-1.5-1-2.6v-23.7c0-1,0.3-1.8,1-2.5c0.7-0.6,1.5-1,2.6-1
		c1,0,1.9,0.3,2.5,0.9c0.6,0.6,1,1.4,1,2.4v8.5c0.7-1,1.6-1.8,2.7-2.3c1.1-0.5,2.3-0.8,3.6-0.8C168.9,246.7,170.6,247.4,171.8,248.9
		z"/>
</g>
</svg>
